<svg width="1005" height="901" viewBox="0 0 1005 901" fill="none" xmlns="http://www.w3.org/2000/svg">
<g clip-path="url(#clip0)">
<path d="M1.15217 783.775C6.60782 847.806 29.7159 900.781 29.7159 900.781L1004.72 901L1004.92 0L685.918 0.92835C685.918 0.92835 560.721 -13.4398 432.369 88.1013C428.358 91.2704 424.427 94.5262 420.576 97.8687C402.523 113.484 386.114 130.904 371.605 149.858C332.419 201.233 307.657 262.138 299.875 326.282C293.684 376.54 277.999 440.417 239.808 493.348C238.497 495.158 237.163 496.957 235.806 498.747C209.469 533.321 173.052 562.733 122.788 579.802C75.2445 595.951 44.8586 622.134 26.2217 652.78C1.74259 692.985 -2.51816 740.864 1.15217 783.775Z" fill="#24949A"/>
<path opacity="0.1" d="M1004.82 171.887H833.817V652.887H1004.82V171.887Z" fill="black"/>
<path opacity="0.1" d="M437.817 652.887H635.817V277.887H437.817L437.817 652.887Z" fill="black"/>
<path opacity="0.1" d="M239.817 493.407V652.887H437.817V149.887H371.537C332.363 201.272 307.614 262.182 299.847 326.327C293.667 376.587 277.997 440.467 239.817 493.407Z" fill="black"/>
<path opacity="0.1" d="M635.817 652.887H833.817L833.817 69.8872H635.817L635.817 652.887Z" fill="black"/>
<path opacity="0.1" d="M1.22707 783.887H1004.82V652.887H26.2671C1.79707 693.097 -2.45293 740.977 1.22707 783.887Z" fill="white"/>
<g opacity="0.5">
<g opacity="0.6">
<path d="M532.947 376.843C532.947 376.843 396.243 582.589 417.198 642.864Z" fill="#F55F44"/>
<path d="M532.947 376.843C532.947 376.843 396.243 582.589 417.198 642.864" stroke="#535461" stroke-miterlimit="10"/>
</g>
<g opacity="0.6">
<path d="M574.261 509.711C574.261 509.711 535.974 481.904 468.842 484.228Z" fill="#F55F44"/>
<path d="M574.261 509.711C574.261 509.711 535.974 481.904 468.842 484.228" stroke="#535461" stroke-miterlimit="10"/>
</g>
<g opacity="0.6">
<path d="M455.24 510.302C455.24 510.302 453.629 459.849 408.797 425.167Z" fill="#F55F44"/>
<path d="M455.24 510.302C455.24 510.302 453.629 459.849 408.797 425.167" stroke="#535461" stroke-miterlimit="10"/>
</g>
<g opacity="0.6">
<path d="M521.173 594.803C521.173 594.803 469.786 553.259 434.686 554.63Z" fill="#F55F44"/>
<path d="M521.173 594.803C521.173 594.803 469.786 553.259 434.686 554.63" stroke="#535461" stroke-miterlimit="10"/>
</g>
<g opacity="0.6">
<path d="M425.535 578.473C425.535 578.473 403.387 548.279 363.779 540.439Z" fill="#F55F44"/>
<path d="M425.535 578.473C425.535 578.473 403.387 548.279 363.779 540.439" stroke="#535461" stroke-miterlimit="10"/>
</g>
</g>
<g opacity="0.5">
<path opacity="0.6" d="M822.04 377.28C822.04 377.28 865.813 620.391 922.661 649.384" stroke="#535461" stroke-miterlimit="10"/>
<path opacity="0.6" d="M943.833 444.566C943.833 444.566 896.953 451.003 850.115 499.152" stroke="#535461" stroke-miterlimit="10"/>
<path opacity="0.6" d="M858.349 527.384C858.349 527.384 822.26 492.089 765.898 498.095" stroke="#535461" stroke-miterlimit="10"/>
<path opacity="0.6" d="M964.425 542.723C964.425 542.723 898.583 548.315 874.202 573.602" stroke="#535461" stroke-miterlimit="10"/>
<path opacity="0.6" d="M884.103 597.143C884.103 597.143 847.218 590.686 813.208 612.447" stroke="#535461" stroke-miterlimit="10"/>
</g>
<g opacity="0.5">
<path opacity="0.5" d="M2.54446 591.276C2.77716 607.709 16.6405 620.704 33.0756 620.704H35.363C37.3838 620.696 39.3272 621.48 40.7761 622.889C41.876 623.92 42.6417 625.256 42.9744 626.727C43.1277 627.32 43.2045 627.931 43.2031 628.544V657.553C43.1947 663.131 44.7911 668.593 47.8018 673.287C52.1782 679.941 54.5514 687.711 54.6392 695.674V695.674C54.6403 697.531 55.0115 699.37 55.7311 701.083C56.4507 702.796 57.5043 704.348 58.8303 705.649C60.1563 706.951 61.7282 707.975 63.4543 708.662C65.1804 709.349 67.026 709.685 68.8835 709.651C76.5711 709.511 82.5941 702.904 82.5941 695.216V687.961L86.4061 688.405V695.674C86.4072 697.531 86.7785 699.37 87.498 701.083C88.2176 702.796 89.2712 704.348 90.5972 705.649C91.9232 706.951 93.4952 707.975 95.2212 708.662C96.9473 709.349 98.7929 709.685 100.65 709.651C108.338 709.511 114.361 702.904 114.361 695.216V691.544C118.173 693.132 139.775 693.132 145.772 691.595L147.399 691.468V695.674C147.4 697.531 147.771 699.37 148.491 701.083C149.21 702.796 150.264 704.348 151.59 705.649C152.916 706.951 154.488 707.975 156.214 708.662C157.94 709.349 159.785 709.685 161.643 709.651C169.331 709.511 175.354 702.904 175.354 695.216V689.181L176.624 689.066V695.674C176.625 696.843 176.77 698.009 177.056 699.143C177.841 702.192 179.631 704.888 182.138 706.795C184.644 708.702 187.72 709.708 190.869 709.651C194.246 709.525 197.469 708.2 199.958 705.914C202.447 703.627 204.041 700.528 204.452 697.173C204.533 696.524 204.576 695.87 204.579 695.216V664.86C204.591 654.435 201.101 644.308 194.668 636.104C193.552 634.653 192.927 632.885 192.884 631.055C192.84 629.225 193.381 627.428 194.426 625.926C201.542 615.507 212.063 597.921 211.72 585.455C211.79 582.074 210.604 578.787 208.391 576.23C208.251 576.078 208.112 575.925 207.972 575.785C197.73 565.061 179.699 573.498 181.262 588.238C181.79 593.176 181.424 598.169 180.182 602.978C179.477 605.695 178.52 608.341 177.323 610.881C176.129 613.432 174.161 615.541 171.7 616.91C169.239 618.278 166.409 618.837 163.613 618.505C161.711 618.275 159.797 618.161 157.882 618.162H99.1129C95.6651 618.162 92.3041 617.082 89.5012 615.074C86.6982 613.066 84.594 610.232 83.4836 606.968C82.8883 605.256 82.5875 603.456 82.5941 601.644V555.899C82.5945 554.707 82.3553 553.527 81.8909 552.43C81.4265 551.332 80.7462 550.339 79.8904 549.509C79.0347 548.679 78.0209 548.03 76.9094 547.6C75.7979 547.17 74.6112 546.967 73.4199 547.004C72.2572 547.044 71.1145 547.318 70.06 547.809C69.0055 548.3 68.0608 548.999 67.2824 549.863C65.6914 551.618 64.8085 553.902 64.8046 556.271C64.8046 556.889 64.6826 557.502 64.4457 558.074C64.2087 558.646 63.8614 559.165 63.4236 559.603C62.9858 560.04 62.4661 560.387 61.8942 560.624C61.3223 560.861 60.7093 560.982 60.0904 560.982H32.4024C28.4441 560.98 24.5249 561.766 20.8731 563.293C17.2213 564.82 13.9097 567.059 11.1311 569.878C8.35254 572.697 6.16241 576.041 4.68826 579.714C3.21411 583.388 2.48539 587.318 2.54446 591.276V591.276Z" fill="url(#paint0_linear)"/>
<path opacity="0.5" d="M177.056 699.143C177.841 702.193 179.631 704.889 182.138 706.795C184.644 708.702 187.72 709.708 190.869 709.651C194.246 709.525 197.469 708.2 199.958 705.914C202.447 703.627 204.041 700.528 204.452 697.173C195.989 694.886 184.261 693.31 177.056 699.143Z" fill="url(#paint1_linear)"/>
<path opacity="0.5" d="M147.831 699.143C148.616 702.193 150.406 704.889 152.912 706.795C155.418 708.702 158.494 709.708 161.643 709.651C165.021 709.525 168.243 708.2 170.733 705.914C173.222 703.627 174.815 700.528 175.227 697.173C166.764 694.886 155.035 693.31 147.831 699.143Z" fill="url(#paint2_linear)"/>
<path opacity="0.5" d="M86.8381 699.143C87.6231 702.193 89.4133 704.889 91.9196 706.795C94.4258 708.702 97.5018 709.708 100.65 709.651C104.028 709.525 107.251 708.2 109.74 705.914C112.229 703.627 113.822 700.528 114.234 697.173C105.771 694.886 94.0429 693.31 86.8381 699.143Z" fill="url(#paint3_linear)"/>
<path opacity="0.5" d="M55.0712 699.143C55.8561 702.193 57.6464 704.889 60.1526 706.795C62.6589 708.702 65.7348 709.708 68.8835 709.651C72.2613 709.525 75.4837 708.2 77.973 705.914C80.4623 703.627 82.0555 700.528 82.467 697.173C74.0042 694.886 62.2759 693.31 55.0712 699.143Z" fill="url(#paint4_linear)"/>
<path opacity="0.5" d="M180.182 602.978C190.055 599.013 202.101 591.757 211.72 585.455C211.79 582.074 210.604 578.787 208.391 576.23C208.251 576.077 208.112 575.925 207.972 575.785C197.73 565.06 179.699 573.498 181.262 588.238C181.79 593.176 181.424 598.169 180.182 602.978V602.978Z" fill="url(#paint5_linear)"/>
<path opacity="0.5" d="M168.231 618.247C168.231 618.247 141.045 652.47 96.5715 618.162Z" fill="url(#paint6_linear)"/>
<path opacity="0.5" d="M82.594 554.628C82.594 554.628 66.0752 576.23 82.594 602.914Z" fill="url(#paint7_linear)"/>
<path opacity="0.5" d="M43.203 628.328C43.203 628.328 57.7512 646.404 43.3852 660.77Z" fill="url(#paint8_linear)"/>
<g opacity="0.1">
<path opacity="0.1" d="M41.9324 624.516C43.0124 625.532 42.6439 626.511 42.9744 627.997L90.2181 615.621C87.6768 613.664 84.5256 611.339 83.4836 608.238C77.8163 612.635 66.6216 620.005 41.9324 624.516Z" fill="url(#paint9_linear)"/>
</g>
<path opacity="0.5" d="M40.7761 622.889C41.876 623.92 42.6417 625.257 42.9744 626.727L89.0237 614.719C86.4509 612.74 84.5229 610.043 83.4836 606.968C77.8163 611.364 65.4654 618.378 40.7761 622.889Z" fill="url(#paint10_linear)"/>
<path opacity="0.1" d="M81.752 609.509C81.752 609.509 67.3459 620.344 43.203 623.7Z" fill="url(#paint11_linear)"/>
<path opacity="0.5" d="M81.752 608.238C81.752 608.238 67.3459 619.073 43.203 622.43Z" fill="url(#paint12_linear)"/>
<g opacity="0.1">
<path opacity="0.1" d="M45.7444 609.268C45.7444 609.268 21.6016 616.892 15.2482 592.749L45.7444 609.268Z" fill="url(#paint13_linear)"/>
</g>
<path opacity="0.5" d="M45.7444 607.997C45.7444 607.997 21.6016 615.621 15.2482 591.478L45.7444 607.997Z" fill="url(#paint14_linear)"/>
<path opacity="0.5" d="M2.54135 592.749C3.94491 592.749 5.08272 590.758 5.08272 588.301C5.08272 585.845 3.94491 583.854 2.54135 583.854C1.1378 583.854 0 585.845 0 588.301C0 590.758 1.1378 592.749 2.54135 592.749Z" fill="url(#paint15_linear)"/>
<path opacity="0.1" d="M195.049 679.79L189.966 639.128C189.966 639.128 205.214 663.271 195.049 679.79Z" fill="url(#paint16_linear)"/>
<path opacity="0.5" d="M188.696 639.128C188.696 639.128 203.944 663.271 193.778 679.79L188.696 639.128Z" fill="url(#paint17_linear)"/>
</g>
<path d="M7.27774 592.973C7.49974 608.653 20.728 621.053 36.4102 621.053H38.5928C40.5211 621.045 42.3754 621.794 43.7579 623.138C44.8074 624.122 45.5381 625.397 45.8555 626.8C46.0018 627.366 46.0751 627.949 46.0737 628.534V656.214C46.0657 661.536 47.589 666.748 50.4618 671.228C54.6377 677.576 56.9022 684.99 56.9859 692.588V692.588C56.987 694.361 57.3412 696.116 58.0278 697.75C58.7145 699.384 59.7197 700.865 60.985 702.107C62.2503 703.349 63.7502 704.326 65.3972 704.981C67.0442 705.637 68.8053 705.958 70.5777 705.925C77.9131 705.792 83.6601 699.487 83.6601 692.152V685.229L87.2975 685.653V692.588C87.2987 694.361 87.6529 696.116 88.3395 697.75C89.0261 699.384 90.0314 700.865 91.2967 702.107C92.5619 703.349 94.0618 704.326 95.7088 704.981C97.3558 705.637 99.1169 705.958 100.889 705.925C108.225 705.792 113.972 699.487 113.972 692.152V688.648C117.609 690.163 138.221 690.163 143.944 688.696L145.496 688.575V692.588C145.497 694.361 145.851 696.116 146.538 697.75C147.224 699.384 148.23 700.865 149.495 702.107C150.76 703.349 152.26 704.326 153.907 704.981C155.554 705.637 157.315 705.958 159.088 705.925C166.423 705.792 172.17 699.487 172.17 692.152V686.393L173.383 686.283V692.588C173.383 693.704 173.521 694.816 173.795 695.898C174.544 698.808 176.252 701.381 178.644 703.2C181.035 705.02 183.97 705.98 186.974 705.925C190.197 705.805 193.272 704.541 195.648 702.359C198.023 700.177 199.543 697.22 199.936 694.019C200.013 693.399 200.053 692.776 200.057 692.152V663.186C200.068 653.238 196.738 643.576 190.6 635.748C189.535 634.363 188.939 632.676 188.897 630.93C188.856 629.183 189.371 627.469 190.369 626.036C197.159 616.094 207.198 599.313 206.871 587.419C206.937 584.193 205.805 581.057 203.694 578.616C203.561 578.471 203.427 578.325 203.294 578.192C193.522 567.959 176.317 576.01 177.808 590.074C178.312 594.786 177.963 599.551 176.777 604.139C176.105 606.732 175.192 609.257 174.049 611.68C172.91 614.114 171.033 616.127 168.684 617.432C166.336 618.738 163.635 619.271 160.967 618.955C159.152 618.736 157.326 618.626 155.499 618.628H99.4222C96.1324 618.627 92.9253 617.597 90.2508 615.681C87.5763 613.765 85.5684 611.06 84.5089 607.946C83.9409 606.313 83.6539 604.595 83.6601 602.866V559.217C83.6605 558.08 83.4323 556.954 82.9892 555.906C82.546 554.859 81.8968 553.911 81.0803 553.12C80.2637 552.328 79.2965 551.709 78.2358 551.298C77.1752 550.887 76.0429 550.694 74.9061 550.73C73.7967 550.768 72.7064 551.029 71.7002 551.497C70.694 551.966 69.7926 552.633 69.0499 553.458C67.5318 555.133 66.6893 557.311 66.6856 559.571C66.6856 560.162 66.5692 560.747 66.3431 561.292C66.117 561.838 65.7856 562.334 65.3679 562.751C64.9501 563.169 64.4542 563.5 63.9085 563.726C63.3628 563.951 62.7779 564.067 62.1873 564.067H35.7677C31.9907 564.065 28.2512 564.815 24.7667 566.272C21.2821 567.729 18.1223 569.865 15.471 572.555C12.8197 575.245 10.7299 578.436 9.32333 581.941C7.91672 585.446 7.22135 589.196 7.27771 592.973H7.27774Z" fill="#F3AD55"/>
<path d="M173.795 695.898C174.544 698.809 176.252 701.381 178.643 703.2C181.035 705.02 183.97 705.98 186.974 705.926C190.197 705.806 193.272 704.541 195.647 702.359C198.023 700.177 199.543 697.221 199.936 694.019C191.861 691.837 180.669 690.333 173.795 695.898Z" fill="#F38143"/>
<path d="M145.908 695.898C146.657 698.809 148.365 701.381 150.757 703.2C153.148 705.02 156.083 705.98 159.088 705.926C162.311 705.806 165.386 704.541 167.761 702.359C170.136 700.177 171.656 697.221 172.049 694.019C163.974 691.837 152.783 690.333 145.908 695.898Z" fill="#F38143"/>
<path d="M87.7097 695.898C88.4587 698.809 90.1669 701.381 92.5584 703.2C94.9498 705.02 97.8848 705.98 100.889 705.926C104.112 705.806 107.187 704.541 109.562 702.359C111.938 700.177 113.458 697.221 113.85 694.019C105.775 691.837 94.5844 690.333 87.7097 695.898Z" fill="#F38143"/>
<path d="M57.3982 695.898C58.1472 698.809 59.8554 701.381 62.2469 703.2C64.6383 705.02 67.5733 705.98 70.5777 705.926C73.8008 705.806 76.8756 704.541 79.2509 702.359C81.6261 700.177 83.1463 697.221 83.5389 694.019C75.4639 691.837 64.2729 690.333 57.3982 695.898Z" fill="#F38143"/>
<path d="M176.777 604.139C186.198 600.356 197.692 593.433 206.871 587.419C206.937 584.193 205.805 581.057 203.694 578.616C203.561 578.471 203.428 578.325 203.294 578.192C193.522 567.959 176.317 576.01 177.808 590.074C178.312 594.786 177.963 599.551 176.777 604.139Z" fill="#F8DEA5"/>
<path d="M165.374 618.709C165.374 618.709 139.433 651.364 96.9972 618.628Z" fill="#F8DEA5"/>
<path d="M83.6601 558.005C83.6601 558.005 67.8981 578.617 83.6601 604.079Z" fill="#F8DEA5"/>
<path d="M46.0737 628.328C46.0737 628.328 59.9555 645.576 46.2476 659.284Z" fill="#F8DEA5"/>
<path opacity="0.1" d="M44.8612 624.69C45.8918 625.66 45.5402 626.594 45.8554 628.013L90.9349 616.203C88.51 614.336 85.5031 612.117 84.5089 609.159C79.1012 613.354 68.4194 620.386 44.8612 624.69Z" fill="black"/>
<path d="M43.7579 623.138C44.8074 624.122 45.5381 625.397 45.8555 626.8L89.7952 615.342C87.3403 613.454 85.5006 610.88 84.5089 607.946C79.1013 612.141 67.3161 618.834 43.7579 623.138Z" fill="#383F4D"/>
<path opacity="0.1" d="M82.8567 610.371C82.8567 610.371 69.1106 620.71 46.0737 623.913Z" fill="black"/>
<path d="M82.8567 609.159C82.8567 609.159 69.1106 619.497 46.0737 622.7Z" fill="#F3AD55"/>
<path opacity="0.1" d="M41.4986 614.141C41.4986 614.141 18.4617 621.415 12.3994 598.378L41.4986 614.141Z" fill="black"/>
<path d="M41.4986 612.928C41.4986 612.928 18.4617 620.203 12.3994 597.166L41.4986 612.928Z" fill="#F3AD55"/>
<path d="M7.27478 594.378C8.61403 594.378 9.69971 592.478 9.69971 590.135C9.69971 587.791 8.61403 585.891 7.27478 585.891C5.93553 585.891 4.84985 587.791 4.84985 590.135C4.84985 592.478 5.93553 594.378 7.27478 594.378Z" fill="#383F4D"/>
<path opacity="0.1" d="M190.963 677.433L186.113 638.634C186.113 638.634 200.663 661.671 190.963 677.433" fill="black"/>
<path d="M184.901 638.634C184.901 638.634 199.451 661.671 189.751 677.433L184.901 638.634Z" fill="#F3AD55"/>
<path opacity="0.1" d="M258.333 602.562C258.333 602.562 329.552 642.791 382.624 622.012C403.154 613.975 417.938 595.868 422.817 574.368C425.563 562.359 430.366 550.916 437.013 540.544C456.241 510.561 490.023 493.218 525.638 493.72C562.55 494.241 631.829 489.226 652.144 446.362" stroke="#383F4D" stroke-width="2" stroke-miterlimit="10"/>
<path d="M77 615.297C77 615.297 180.987 659.156 258.476 636.503C288.452 627.74 310.037 607.999 317.162 584.558C321.171 571.466 328.183 558.99 337.889 547.682C365.964 514.993 415.288 496.085 467.29 496.632C521.185 497.2 622.338 491.732 652 445" stroke="#383F4D" stroke-width="2" stroke-miterlimit="10"/>
<path d="M665.195 418.028C665.195 418.028 633.882 454.545 640.463 456.93C647.044 459.314 677.771 433.221 675.796 423.996L665.195 418.028Z" fill="#A0616A"/>
<path d="M849.497 451.87C849.497 451.87 866.497 496.87 859.497 496.87C852.497 496.87 832.497 461.87 837.497 453.87L849.497 451.87Z" fill="#A0616A"/>
<path d="M881.784 726.314C893.608 709.648 898.812 693.028 893.407 689.193C888.002 685.359 874.034 695.76 862.21 712.426C850.386 729.092 845.182 745.711 850.587 749.546C855.992 753.381 869.959 742.98 881.784 726.314Z" fill="#2F2E41"/>
<path d="M755.795 746.494C771.328 733.216 780.429 718.369 776.123 713.331C771.816 708.293 755.733 714.973 740.2 728.25C724.667 741.528 715.566 756.375 719.872 761.413C724.179 766.451 740.262 759.771 755.795 746.494Z" fill="#2F2E41"/>
<path d="M860.074 179.489C857.267 175.52 853.814 172.051 850.852 168.196C844.023 159.308 841.66 147.466 832.496 140.65C823.428 133.906 809.037 127.268 797.69 127.8C782.734 128.501 770.87 140.103 760.561 150.959C752.682 159.256 744.804 167.552 736.925 175.849C731.225 181.851 725.315 188.223 723.261 196.241C721.287 203.947 723.213 212.225 726.828 219.312C730.584 226.5 735.853 232.789 742.271 237.747C750.183 226.853 761.267 211.81 761.267 211.81L763.848 249.227C777.252 253.669 791.651 254.543 805.776 253.56L809.96 238.219L814.351 252.711C831.232 250.473 848.19 244.645 858.64 231.472C870.192 216.909 870.806 194.667 860.074 179.489Z" fill="#2F2E41"/>
<path d="M795.497 212.87C812.618 212.87 826.497 198.99 826.497 181.87C826.497 164.749 812.618 150.87 795.497 150.87C778.376 150.87 764.497 164.749 764.497 181.87C764.497 198.99 778.376 212.87 795.497 212.87Z" fill="#A0616A"/>
<path d="M775.497 196.87C775.497 196.87 777.497 220.87 764.497 222.87C751.497 224.87 737.497 222.87 737.497 230.87C737.497 238.87 747.497 311.87 747.497 311.87L772.497 309.87L807.497 275.87L826.497 238.87C826.497 238.87 803.497 228.87 813.497 198.87L775.497 196.87Z" fill="#A0616A"/>
<path d="M760.497 297.87L750.497 270.87L752.497 233.87C752.497 233.87 774.454 230.87 773.975 212.87L757.497 219.87L719.497 225.87V260.87C719.497 260.87 706.497 281.87 721.497 302.87L728.497 346.87L800.497 341.87L823.497 311.87L852.497 254.87L822.497 232.87L826.497 226.87L811.195 216.89L813.497 235.87L806.497 247.87C806.497 247.87 774.497 253.87 760.497 297.87Z" fill="#D0CDE1"/>
<path d="M725.497 227.87L719.497 225.87C719.497 225.87 707.497 230.87 707.497 246.87C707.497 262.87 659.497 420.87 659.497 420.87L681.497 426.87L711.497 353.87L729.497 292.87L725.497 227.87Z" fill="#D0CDE1"/>
<path d="M844.497 254.87H852.497C852.497 254.87 857.497 250.87 856.497 279.87C855.497 308.87 859.497 461.87 859.497 461.87L830.497 459.87L823.497 294.87L844.497 254.87Z" fill="#D0CDE1"/>
<path d="M806.277 334.331C806.277 334.331 738.497 321.87 723.497 333.87C724.888 335.551 725.601 337.69 725.497 339.87C725.497 343.87 727.497 338.87 725.497 343.87C723.497 348.87 719.497 344.87 723.497 348.87C727.497 352.87 728.497 351.87 726.497 354.87C724.497 357.87 726.497 362.87 726.497 362.87C726.497 362.87 715.497 414.87 725.497 451.87C735.497 488.87 818.497 749.87 840.497 742.87C862.497 735.87 917.497 703.87 914.497 692.87C911.497 681.87 810.497 529.87 810.497 529.87C810.497 529.87 852.497 398.87 802.497 356.87C802.497 356.87 805.497 352.87 804.497 349.87C803.497 346.87 802.497 349.87 803.497 346.87C804.497 343.87 809.497 343.87 806.497 340.87C803.497 337.87 806.277 334.331 806.277 334.331Z" fill="#2F2E41"/>
<path d="M760.497 441.87C760.497 441.87 692.497 745.87 706.497 750.87C720.497 755.87 774.497 756.87 778.497 750.87C782.497 744.87 810.497 529.87 810.497 529.87L760.497 441.87Z" fill="#2F2E41"/>
<path d="M761.997 159.37C761.997 159.37 786.997 189.37 836.997 172.37L822.997 147.37L789.997 137.37L761.997 159.37Z" fill="#2F2E41"/>
</g>
<defs>
<linearGradient id="paint0_linear" x1="107.135" y1="709.653" x2="107.135" y2="547" gradientUnits="userSpaceOnUse">
<stop stop-color="#808080" stop-opacity="0.25"/>
<stop offset="0.53514" stop-color="#808080" stop-opacity="0.12"/>
<stop offset="1" stop-color="#808080" stop-opacity="0.1"/>
</linearGradient>
<linearGradient id="paint1_linear" x1="15738.8" y1="10795.7" x2="15738.8" y2="10584.3" gradientUnits="userSpaceOnUse">
<stop stop-color="#808080" stop-opacity="0.25"/>
<stop offset="0.53514" stop-color="#808080" stop-opacity="0.12"/>
<stop offset="1" stop-color="#808080" stop-opacity="0.1"/>
</linearGradient>
<linearGradient id="paint2_linear" x1="16510.2" y1="10795.8" x2="16510.2" y2="10584.3" gradientUnits="userSpaceOnUse">
<stop stop-color="#808080" stop-opacity="0.25"/>
<stop offset="0.53514" stop-color="#808080" stop-opacity="0.12"/>
<stop offset="1" stop-color="#808080" stop-opacity="0.1"/>
</linearGradient>
<linearGradient id="paint3_linear" x1="18120.1" y1="10795.8" x2="18120.1" y2="10584.3" gradientUnits="userSpaceOnUse">
<stop stop-color="#808080" stop-opacity="0.25"/>
<stop offset="0.53514" stop-color="#808080" stop-opacity="0.12"/>
<stop offset="1" stop-color="#808080" stop-opacity="0.1"/>
</linearGradient>
<linearGradient id="paint4_linear" x1="18958.7" y1="10795.8" x2="18958.7" y2="10584.3" gradientUnits="userSpaceOnUse">
<stop stop-color="#808080" stop-opacity="0.25"/>
<stop offset="0.53514" stop-color="#808080" stop-opacity="0.12"/>
<stop offset="1" stop-color="#808080" stop-opacity="0.1"/>
</linearGradient>
<linearGradient id="paint5_linear" x1="17932.6" y1="19398.6" x2="17932.6" y2="18373" gradientUnits="userSpaceOnUse">
<stop stop-color="#808080" stop-opacity="0.25"/>
<stop offset="0.53514" stop-color="#808080" stop-opacity="0.12"/>
<stop offset="1" stop-color="#808080" stop-opacity="0.1"/>
</linearGradient>
<linearGradient id="paint6_linear" x1="44983.2" y1="10060.6" x2="44983.2" y2="9827.4" gradientUnits="userSpaceOnUse">
<stop stop-color="#808080" stop-opacity="0.25"/>
<stop offset="0.53514" stop-color="#808080" stop-opacity="0.12"/>
<stop offset="1" stop-color="#808080" stop-opacity="0.1"/>
</linearGradient>
<linearGradient id="paint7_linear" x1="5066.6" y1="28938.6" x2="5066.6" y2="26607.1" gradientUnits="userSpaceOnUse">
<stop stop-color="#808080" stop-opacity="0.25"/>
<stop offset="0.53514" stop-color="#808080" stop-opacity="0.12"/>
<stop offset="1" stop-color="#808080" stop-opacity="0.1"/>
</linearGradient>
<linearGradient id="paint8_linear" x1="4687.69" y1="21576.3" x2="4687.69" y2="20523.7" gradientUnits="userSpaceOnUse">
<stop stop-color="#808080" stop-opacity="0.25"/>
<stop offset="0.53514" stop-color="#808080" stop-opacity="0.12"/>
<stop offset="1" stop-color="#808080" stop-opacity="0.1"/>
</linearGradient>
<linearGradient id="paint9_linear" x1="33490" y1="12718.9" x2="33490" y2="12328.5" gradientUnits="userSpaceOnUse">
<stop stop-color="#808080" stop-opacity="0.25"/>
<stop offset="0.53514" stop-color="#808080" stop-opacity="0.12"/>
<stop offset="1" stop-color="#808080" stop-opacity="0.1"/>
</linearGradient>
<linearGradient id="paint10_linear" x1="33519.1" y1="12692.5" x2="33519.1" y2="12302.1" gradientUnits="userSpaceOnUse">
<stop stop-color="#808080" stop-opacity="0.25"/>
<stop offset="0.53514" stop-color="#808080" stop-opacity="0.12"/>
<stop offset="1" stop-color="#808080" stop-opacity="0.1"/>
</linearGradient>
<linearGradient id="paint11_linear" x1="26885.2" y1="9246.81" x2="26885.2" y2="9045.41" gradientUnits="userSpaceOnUse">
<stop stop-color="#808080" stop-opacity="0.25"/>
<stop offset="0.53514" stop-color="#808080" stop-opacity="0.12"/>
<stop offset="1" stop-color="#808080" stop-opacity="0.1"/>
</linearGradient>
<linearGradient id="paint12_linear" x1="26885.2" y1="9227.5" x2="26885.2" y2="9026.1" gradientUnits="userSpaceOnUse">
<stop stop-color="#808080" stop-opacity="0.25"/>
<stop offset="0.53514" stop-color="#808080" stop-opacity="0.12"/>
<stop offset="1" stop-color="#808080" stop-opacity="0.1"/>
</linearGradient>
<linearGradient id="paint13_linear" x1="22225.4" y1="11107" x2="22225.4" y2="10795.1" gradientUnits="userSpaceOnUse">
<stop stop-color="#808080" stop-opacity="0.25"/>
<stop offset="0.53514" stop-color="#808080" stop-opacity="0.12"/>
<stop offset="1" stop-color="#808080" stop-opacity="0.1"/>
</linearGradient>
<linearGradient id="paint14_linear" x1="22225.4" y1="11083.3" x2="22225.4" y2="10771.4" gradientUnits="userSpaceOnUse">
<stop stop-color="#808080" stop-opacity="0.25"/>
<stop offset="0.53514" stop-color="#808080" stop-opacity="0.12"/>
<stop offset="1" stop-color="#808080" stop-opacity="0.1"/>
</linearGradient>
<linearGradient id="paint15_linear" x1="-3259.67" y1="5722.59" x2="-3259.67" y2="5643.47" gradientUnits="userSpaceOnUse">
<stop stop-color="#808080" stop-opacity="0.25"/>
<stop offset="0.53514" stop-color="#808080" stop-opacity="0.12"/>
<stop offset="1" stop-color="#808080" stop-opacity="0.1"/>
</linearGradient>
<linearGradient id="paint16_linear" x1="5031.99" y1="27667.4" x2="5031.99" y2="26014" gradientUnits="userSpaceOnUse">
<stop stop-color="#808080" stop-opacity="0.25"/>
<stop offset="0.53514" stop-color="#808080" stop-opacity="0.12"/>
<stop offset="1" stop-color="#808080" stop-opacity="0.1"/>
</linearGradient>
<linearGradient id="paint17_linear" x1="5041.62" y1="27667.4" x2="5041.62" y2="26014" gradientUnits="userSpaceOnUse">
<stop stop-color="#808080" stop-opacity="0.25"/>
<stop offset="0.53514" stop-color="#808080" stop-opacity="0.12"/>
<stop offset="1" stop-color="#808080" stop-opacity="0.1"/>
</linearGradient>
<clipPath id="clip0">
<rect width="1004.92" height="901" fill="white"/>
</clipPath>
</defs>
</svg>
