<svg width="970" height="782" viewBox="0 0 970 782" fill="none" xmlns="http://www.w3.org/2000/svg">
<g clip-path="url(#clip0)">
<g opacity="0.5">
<path opacity="0.5" d="M918.84 194.63H786V143.8C786 129.68 780.391 116.138 770.406 106.154C760.422 96.1693 746.88 90.5601 732.76 90.5601H124.53C111.72 90.5601 99.4347 95.6488 90.3767 104.707C81.3187 113.765 76.23 126.05 76.23 138.86V194.66H56.23C41.3308 194.655 27.0391 200.565 16.4953 211.092C5.9516 221.619 0.0185534 235.901 0 250.8V502.8C0.0108025 516.971 5.37449 530.614 15.017 540.999C24.6595 551.383 37.8689 557.741 52 558.8V615.8H108.78V558.97H180.28V616.28H237.06V558.97H748.06V616.28H804.84V558.97H852.16V615.75H909V558.97H919.23C925.897 558.971 932.498 557.659 938.658 555.109C944.818 552.559 950.415 548.82 955.129 544.106C959.844 539.393 963.584 533.797 966.135 527.637C968.687 521.478 970 514.877 970 508.21V245.8C970.001 239.081 968.679 232.427 966.109 226.219C963.538 220.011 959.77 214.37 955.019 209.618C950.268 204.866 944.628 201.097 938.42 198.525C932.213 195.954 925.559 194.63 918.84 194.63V194.63ZM776 417.02V459.6H564.32C566.613 455.495 567.814 450.871 567.81 446.17V417.02H776Z" fill="url(#paint0_linear)"/>
</g>
<path d="M122.79 537.67H68.12V606.01H122.79V537.67Z" fill="#1CB48F"/>
<path d="M793.04 538.18H738.37V606.52H793.04V538.18Z" fill="#1CB48F"/>
<path d="M893.27 537.67H838.6V606.01H893.27V537.67Z" fill="#1CB48F"/>
<path d="M246.31 538.18H191.64V606.52H246.31V538.18Z" fill="#1CB48F"/>
<path opacity="0.3" d="M122.79 537.67H68.12V606.01H122.79V537.67Z" fill="black"/>
<path opacity="0.3" d="M793.04 538.18H738.37V606.52H793.04V538.18Z" fill="black"/>
<path opacity="0.3" d="M893.27 537.67H838.6V606.01H893.27V537.67Z" fill="black"/>
<path opacity="0.3" d="M246.31 538.18H191.64V606.52H246.31V538.18Z" fill="black"/>
<path d="M765.2 200.52H902.74C915.804 200.52 928.334 205.71 937.572 214.948C946.81 224.186 952 236.715 952 249.78V502.47C952 515.431 946.851 527.861 937.686 537.026C928.521 546.191 916.091 551.34 903.13 551.34H765.2V200.52Z" fill="#1CB48F"/>
<path opacity="0.3" d="M765.2 200.52H902.74C915.804 200.52 928.334 205.71 937.572 214.948C946.81 224.186 952 236.715 952 249.78V502.47C952 515.431 946.851 527.861 937.686 537.026C928.521 546.191 916.091 551.34 903.13 551.34H765.2V200.52Z" fill="black"/>
<path d="M137.91 100.29H401.22V414.66H91.4V146.79C91.4026 134.457 96.304 122.629 105.026 113.909C113.748 105.189 125.577 100.29 137.91 100.29V100.29Z" fill="#1CB48F"/>
<path opacity="0.3" d="M139.41 100.29H401.22V414.66H91.4V148.29C91.4 141.986 92.6419 135.743 95.0547 129.919C97.4676 124.095 101.004 118.803 105.462 114.345C109.921 109.888 115.213 106.353 121.038 103.941C126.863 101.529 133.106 100.289 139.41 100.29V100.29Z" fill="black"/>
<path d="M209.2 100.29H464.5V414.66H154.68V154.8C154.68 140.343 160.423 126.478 170.646 116.256C180.868 106.033 194.733 100.29 209.19 100.29H209.2Z" fill="#1CB48F"/>
<path d="M463 100.29H723.55C737.148 100.29 750.188 105.692 759.803 115.307C769.418 124.922 774.82 137.962 774.82 151.56V414.66H463V100.29Z" fill="#1CB48F"/>
<path d="M851.77 200.52H902.77C915.829 200.528 928.351 205.721 937.583 214.959C946.814 224.196 952 236.721 952 249.78V502.47C952 515.431 946.851 527.861 937.686 537.026C928.521 546.191 916.091 551.34 903.13 551.34H851.77V200.52Z" fill="#1CB48F"/>
<path d="M851.76 455.66H223.02V551.34H851.76V455.66Z" fill="#1CB48F"/>
<path d="M367.491 212.854L298.79 232.878C268.541 241.695 251.167 273.364 259.983 303.613L282.742 381.694C291.559 411.943 323.228 429.318 353.477 420.501L422.178 400.476C452.427 391.659 469.801 359.99 460.985 329.741L438.226 251.66C429.409 221.411 397.74 204.037 367.491 212.854Z" fill="url(#paint1_linear)"/>
<path d="M363.706 222.181L299.642 240.854C271.434 249.076 255.232 278.608 263.454 306.815L284.676 379.626C292.898 407.833 322.43 424.035 350.638 415.813L414.702 397.14C442.91 388.919 459.112 359.387 450.89 331.179L429.668 258.369C421.446 230.161 391.914 213.959 363.706 222.181Z" fill="#F55F44"/>
<path opacity="0.1" d="M363.706 222.181L299.642 240.854C271.434 249.076 255.232 278.608 263.454 306.815L284.676 379.626C292.898 407.833 322.43 424.035 350.638 415.813L414.702 397.14C442.91 388.919 459.112 359.387 450.89 331.179L429.668 258.369C421.446 230.161 391.914 213.959 363.706 222.181Z" fill="black"/>
<path d="M367.012 219.858L302.948 238.531C274.74 246.752 258.538 276.284 266.76 304.492L287.982 377.302C296.204 405.51 325.736 421.712 353.944 413.49L418.008 394.817C446.216 386.595 462.418 357.063 454.196 328.856L432.973 256.045C424.752 227.838 395.22 211.636 367.012 219.858Z" fill="#F55F44"/>
<path d="M353.31 282.717C359.485 278.374 360.97 269.847 356.627 263.672C352.283 257.497 343.756 256.011 337.581 260.355C331.406 264.698 329.921 273.225 334.264 279.4C338.607 285.576 347.134 287.061 353.31 282.717Z" fill="url(#paint2_linear)"/>
<path d="M418.711 320.266C424.887 315.922 426.372 307.395 422.028 301.22C417.685 295.045 409.158 293.56 402.983 297.903C396.808 302.246 395.322 310.773 399.666 316.948C404.009 323.124 412.536 324.609 418.711 320.266Z" fill="url(#paint3_linear)"/>
<path d="M317.268 358.182C323.443 353.838 324.928 345.311 320.585 339.136C316.242 332.961 307.715 331.476 301.539 335.819C295.364 340.162 293.879 348.689 298.222 354.864C302.566 361.04 311.093 362.525 317.268 358.182Z" fill="url(#paint4_linear)"/>
<path d="M378.936 398.359C385.111 394.015 386.596 385.488 382.253 379.313C377.91 373.138 369.383 371.653 363.208 375.996C357.032 380.339 355.547 388.866 359.89 395.041C364.234 401.217 372.761 402.702 378.936 398.359Z" fill="url(#paint5_linear)"/>
<path d="M350.686 278.988C354.802 276.093 355.791 270.411 352.897 266.295C350.002 262.18 344.32 261.19 340.204 264.085C336.089 266.979 335.099 272.662 337.994 276.777C340.888 280.892 346.571 281.882 350.686 278.988Z" fill="#F99F8F"/>
<path d="M416.088 316.536C420.203 313.641 421.193 307.959 418.299 303.843C415.404 299.728 409.722 298.738 405.606 301.633C401.491 304.527 400.501 310.21 403.396 314.325C406.29 318.44 411.973 319.43 416.088 316.536Z" fill="#F99F8F"/>
<path d="M314.645 354.452C318.76 351.557 319.75 345.875 316.855 341.759C313.961 337.644 308.278 336.654 304.163 339.549C300.047 342.443 299.058 348.126 301.952 352.241C304.847 356.356 310.529 357.346 314.645 354.452Z" fill="#F99F8F"/>
<path d="M376.313 394.629C380.428 391.734 381.418 386.052 378.523 381.936C375.629 377.821 369.946 376.831 365.831 379.726C361.716 382.62 360.726 388.303 363.62 392.418C366.515 396.533 372.197 397.523 376.313 394.629Z" fill="#F99F8F"/>
<path d="M72.13 200.52H273.13V551.34H72.13C57.7756 551.34 44.0089 545.638 33.8578 535.489C23.7068 525.34 18.0027 511.574 18 497.22V254.65C18 240.294 23.703 226.526 33.8543 216.374C44.0057 206.223 57.7738 200.52 72.13 200.52V200.52Z" fill="#1CB48F"/>
<path opacity="0.3" d="M72.51 200.52H222.7C229.327 200.52 235.89 201.826 242.012 204.363C248.134 206.901 253.696 210.62 258.381 215.308C263.065 219.996 266.779 225.561 269.312 231.685C271.844 237.809 273.145 244.373 273.14 251V500.9C273.14 514.278 267.826 527.107 258.366 536.566C248.907 546.026 236.078 551.34 222.7 551.34H72.51C58.0531 551.34 44.1882 545.597 33.9656 535.374C23.743 525.152 18 511.287 18 496.83V255C18.008 240.548 23.7545 226.691 33.9762 216.475C44.198 206.259 58.0582 200.52 72.51 200.52V200.52Z" fill="black"/>
<path opacity="0.1" d="M173.41 200.52H261.2C265.709 200.52 270.033 202.311 273.221 205.499C276.409 208.687 278.2 213.011 278.2 217.52V534.34C278.2 538.849 276.409 543.173 273.221 546.361C270.033 549.549 265.709 551.34 261.2 551.34H173.41V200.52Z" fill="black"/>
<path d="M168.35 200.52H256.14C260.649 200.52 264.973 202.311 268.161 205.499C271.349 208.687 273.14 213.011 273.14 217.52V534.34C273.14 538.849 271.349 543.173 268.161 546.361C264.973 549.549 260.649 551.34 256.14 551.34H168.35V200.52Z" fill="#1CB48F"/>
<path d="M564.73 382.77H250.36V469.34H564.73V382.77Z" fill="#1CB48F"/>
<path d="M879.61 383.27H565.24V469.84H879.61V383.27Z" fill="#1CB48F"/>
<path opacity="0.15" d="M538.13 382.77H276.96C262.269 382.77 250.36 394.679 250.36 409.37V442.74C250.36 457.431 262.269 469.34 276.96 469.34H538.13C552.821 469.34 564.73 457.431 564.73 442.74V409.37C564.73 394.679 552.821 382.77 538.13 382.77Z" fill="white"/>
<path d="M601.43 223.55C611.493 223.55 619.65 215.393 619.65 205.33C619.65 195.267 611.493 187.11 601.43 187.11C591.367 187.11 583.21 195.267 583.21 205.33C583.21 215.393 591.367 223.55 601.43 223.55Z" fill="#1CB48F"/>
<path opacity="0.3" d="M601.43 223.55C611.493 223.55 619.65 215.393 619.65 205.33C619.65 195.267 611.493 187.11 601.43 187.11C591.367 187.11 583.21 195.267 583.21 205.33C583.21 215.393 591.367 223.55 601.43 223.55Z" fill="black"/>
<path d="M318.96 223.55C329.023 223.55 337.18 215.393 337.18 205.33C337.18 195.267 329.023 187.11 318.96 187.11C308.897 187.11 300.74 195.267 300.74 205.33C300.74 215.393 308.897 223.55 318.96 223.55Z" fill="#1CB48F"/>
<path opacity="0.3" d="M318.96 223.55C329.023 223.55 337.18 215.393 337.18 205.33C337.18 195.267 329.023 187.11 318.96 187.11C308.897 187.11 300.74 195.267 300.74 205.33C300.74 215.393 308.897 223.55 318.96 223.55Z" fill="black"/>
<path d="M309.84 109.14C312.358 109.14 314.4 106.082 314.4 102.31C314.4 98.5379 312.358 95.48 309.84 95.48C307.322 95.48 305.28 98.5379 305.28 102.31C305.28 106.082 307.322 109.14 309.84 109.14Z" fill="#FDA57D"/>
<path opacity="0.15" d="M853.01 383.27H591.84C577.149 383.27 565.24 395.179 565.24 409.87V443.24C565.24 457.931 577.149 469.84 591.84 469.84H853.01C867.701 469.84 879.61 457.931 879.61 443.24V409.87C879.61 395.179 867.701 383.27 853.01 383.27Z" fill="white"/>
<g opacity="0.5">
<path opacity="0.5" d="M672.44 208.01C670.35 196.52 668.21 184.9 663.44 174.21C658.216 162.467 650.032 152.281 639.69 144.65C638.154 143.489 636.251 142.921 634.33 143.05C631.33 143.31 630.41 145.15 629.94 147.05C629.88 147.28 629.83 147.5 629.79 147.73C628.61 153.56 629.4 159.32 631.11 165C633.24 172.09 636.81 179 639.78 185.86C645.131 198.152 648.678 211.153 650.31 224.46C650.53 226.22 650.7 228.03 650.74 229.84C650.769 230.917 650.742 231.995 650.66 233.07C650.526 235.177 650.046 237.248 649.24 239.2C649.1 239.52 648.95 239.853 648.79 240.2C648.63 240.547 648.457 240.853 648.27 241.12C646.45 244.12 643.61 246.26 640.83 248.37C638.05 250.48 634.9 252.73 631.58 253.87H631.69C630.146 254.427 628.512 254.695 626.87 254.66C621.74 254.5 616.27 250.37 611.11 251.34L610.53 251.47C605.25 252.9 601.2 261.2 601.16 266.47C601.16 266.89 601.16 267.297 601.16 267.69C601.16 267.83 601.16 267.97 601.21 268.11C601.26 268.25 601.27 268.64 601.31 268.89C601.35 269.14 601.37 269.2 601.41 269.35C601.45 269.5 601.5 269.8 601.56 270.02C601.62 270.24 601.65 270.33 601.7 270.48C601.75 270.63 601.83 270.89 601.9 271.09C601.97 271.29 602.02 271.39 602.08 271.53C602.14 271.67 602.24 271.91 602.33 272.09L602.55 272.51C602.65 272.68 602.74 272.86 602.85 273.03L603.11 273.43L603.45 273.91L603.74 274.28L604.13 274.72L604.45 275.06L604.88 275.47L605.23 275.78L605.7 276.16L606.07 276.45L606.58 276.8L606.96 277.06L607.52 277.39L607.91 277.61L608.54 277.92L608.91 278.1C609.21 278.24 609.52 278.37 609.83 278.49L610.28 278.66L611 278.92L611.52 279.08L612.11 279.26L612.69 279.41L613.25 279.55L613.87 279.68L614.41 279.79L615.06 279.9L615.58 279.98L616.25 280.07L616.75 280.13L617.45 280.19H617.94H618.66H619.12H619.87H621.44H622.26H622.55L623.43 280.12H623.6C626.096 279.903 628.554 279.362 630.91 278.51C638.38 275.68 644.72 270.51 650.59 265.08C662.23 254.33 673.23 240.99 674.16 225.17C674.52 219.46 673.47 213.7 672.44 208.01Z" fill="url(#paint6_linear)"/>
</g>
<path opacity="0.1" d="M623.21 204.21H528.94V231.5H623.21V204.21Z" fill="black"/>
<path d="M623.21 204.21H528.94V229.02H623.21V204.21Z" fill="#1CB48F"/>
<path d="M583.52 207.52C591.738 207.52 598.4 200.858 598.4 192.64C598.4 184.422 591.738 177.76 583.52 177.76C575.302 177.76 568.64 184.422 568.64 192.64C568.64 200.858 575.302 207.52 583.52 207.52Z" fill="#1CB48F"/>
<path d="M555.46 215.54L555.28 215.36C555.618 215.105 555.891 214.774 556.08 214.395C556.269 214.016 556.367 213.598 556.367 213.175C556.367 212.752 556.269 212.334 556.08 211.955C555.891 211.576 555.618 211.246 555.28 210.99L555.44 210.79C555.801 211.07 556.094 211.43 556.295 211.841C556.496 212.251 556.601 212.703 556.601 213.16C556.601 213.617 556.496 214.069 556.295 214.48C556.094 214.89 555.801 215.25 555.44 215.53L555.46 215.54Z" fill="#4D8AF0"/>
<path opacity="0.1" d="M555.46 215.54L555.28 215.36C555.618 215.105 555.891 214.774 556.08 214.395C556.269 214.016 556.367 213.598 556.367 213.175C556.367 212.752 556.269 212.334 556.08 211.955C555.891 211.576 555.618 211.246 555.28 210.99L555.44 210.79C555.801 211.07 556.094 211.43 556.295 211.841C556.496 212.251 556.601 212.703 556.601 213.16C556.601 213.617 556.496 214.069 556.295 214.48C556.094 214.89 555.801 215.25 555.44 215.53L555.46 215.54Z" fill="black"/>
<path d="M555.28 215.54C554.919 215.26 554.626 214.9 554.425 214.49C554.224 214.079 554.119 213.627 554.119 213.17C554.119 212.713 554.224 212.261 554.425 211.851C554.626 211.44 554.919 211.08 555.28 210.8L555.44 211C555.102 211.256 554.829 211.586 554.64 211.965C554.451 212.344 554.353 212.762 554.353 213.185C554.353 213.608 554.451 214.026 554.64 214.405C554.829 214.784 555.102 215.115 555.44 215.37L555.28 215.54Z" fill="#4D8AF0"/>
<path d="M631.51 295.6C638.34 293.01 644.13 288.28 649.51 283.32C660.15 273.5 670.19 261.32 671.05 246.85C671.36 241.57 670.41 236.31 669.46 231.1C667.55 220.6 665.6 209.98 661.27 200.22C656.495 189.494 649.018 180.19 639.57 173.22C638.163 172.156 636.419 171.638 634.66 171.76C631.66 172.03 630.9 174.09 630.5 176.06C628.07 188.06 634.74 199.7 639.62 210.9C644.509 222.132 647.749 234.011 649.24 246.17C649.87 251.33 650.1 256.91 647.38 261.35C645.72 264.07 643.12 266.05 640.58 267.97C636.78 270.84 632.58 273.85 627.82 273.71C623.06 273.57 617.74 269.48 612.82 270.8C607.9 272.12 604.29 279.69 604.26 284.54C604.2 297.68 622.37 299.06 631.51 295.6Z" fill="#FFD180"/>
<g opacity="0.1">
<path opacity="0.1" d="M647.36 261.35C645.7 264.07 643.1 266.05 640.56 267.97C638.018 270.068 635.163 271.755 632.1 272.97C636.42 272.68 640.29 269.97 643.8 267.28C646.34 265.36 648.94 263.37 650.6 260.66C653.31 256.23 653.09 250.66 652.46 245.48C650.969 233.321 647.729 221.442 642.84 210.21C637.96 199 631.28 187.35 633.72 175.37C633.787 174.662 634 173.975 634.344 173.352C634.688 172.729 635.156 172.184 635.72 171.75C635.351 171.718 634.979 171.718 634.61 171.75C631.61 172.02 630.85 174.08 630.45 176.05C628.02 188.05 634.69 199.69 639.57 210.89C644.459 222.122 647.699 234.001 649.19 246.16C649.85 251.33 650.08 256.91 647.36 261.35Z" fill="black"/>
<path opacity="0.1" d="M607.52 283.88C607.52 279.4 610.71 272.59 615 270.55C614.269 270.532 613.538 270.616 612.83 270.8C608 272.11 604.3 279.69 604.27 284.54C604.21 296.8 620 298.8 629.55 296.23C620.06 297.61 607.46 294.8 607.52 283.88Z" fill="black"/>
</g>
<g opacity="0.5">
<path opacity="0.5" d="M537.87 147.19C537.87 147.19 565.11 141.74 578.73 147.19C578.73 147.19 586.9 128.12 595.07 128.12C603.24 128.12 605.96 158.12 605.96 158.12L616.85 201.7C616.85 201.7 668.6 294.31 616.85 343.33C565.1 392.35 483.4 337.85 483.4 302.44C483.4 267.03 499.74 193.5 499.74 193.5C499.74 193.5 516.08 133.58 521.53 128.13C526.98 122.68 537.87 147.19 537.87 147.19Z" fill="url(#paint7_linear)"/>
</g>
<path d="M538.79 150.98C538.79 150.98 564.97 145.74 578.06 150.98C578.06 150.98 585.91 132.65 593.77 132.65C601.63 132.65 604.24 161.45 604.24 161.45L614.71 203.34C614.71 203.34 664.46 292.34 614.71 339.49C564.96 386.64 486.41 334.25 486.41 300.22C486.41 266.19 502.12 195.49 502.12 195.49C502.12 195.49 517.83 137.89 523.07 132.65C528.31 127.41 538.79 150.98 538.79 150.98Z" fill="#FFD180"/>
<g opacity="0.1">
<path opacity="0.1" d="M633 252.28C628.983 235.262 622.828 218.821 614.68 203.35L616.33 209.97C623.424 223.418 629.014 237.607 633 252.28Z" fill="white"/>
<path opacity="0.1" d="M491.12 293.17C491.12 259.17 503.79 202.11 503.79 202.11C503.79 202.11 519.5 144.51 524.74 139.27C529.98 134.03 540.45 157.6 540.45 157.6C540.45 157.6 566.63 152.36 579.72 157.6C579.72 157.6 587.58 139.27 595.43 139.27C598.43 139.27 600.74 143.61 602.36 148.92C600.76 141.15 598.04 132.65 593.78 132.65C585.93 132.65 578.07 150.98 578.07 150.98C564.98 145.74 538.8 150.98 538.8 150.98C538.8 150.98 528.33 127.42 523.09 132.65C517.85 137.88 502.14 195.49 502.14 195.49C502.14 195.49 489.47 252.49 489.47 286.55C489.46 289.63 491.12 294.15 491.12 293.17Z" fill="white"/>
</g>
<path d="M589.85 202.04C592.744 202.04 595.09 199.694 595.09 196.8C595.09 193.906 592.744 191.56 589.85 191.56C586.956 191.56 584.61 193.906 584.61 196.8C584.61 199.694 586.956 202.04 589.85 202.04Z" fill="#58555D"/>
<path d="M529.63 202.04C532.524 202.04 534.87 199.694 534.87 196.8C534.87 193.906 532.524 191.56 529.63 191.56C526.736 191.56 524.39 193.906 524.39 196.8C524.39 199.694 526.736 202.04 529.63 202.04Z" fill="#58555D"/>
<path d="M561.05 207.28C565.385 207.28 568.9 204.934 568.9 202.04C568.9 199.146 565.385 196.8 561.05 196.8C556.715 196.8 553.2 199.146 553.2 202.04C553.2 204.934 556.715 207.28 561.05 207.28Z" fill="#58555D"/>
<path d="M628.842 190.243L605.276 195.476L605.844 198.033L629.41 192.8L628.842 190.243Z" fill="#FFD180"/>
<path d="M631.497 200.719L605.311 205.937L605.823 208.507L632.009 203.288L631.497 200.719Z" fill="#FFD180"/>
<path d="M485.595 182.486L484.622 184.918L510.805 195.391L511.778 192.958L485.595 182.486Z" fill="#FFD180"/>
<path d="M477.495 195.529L477.097 198.118L511.136 203.358L511.535 200.768L477.495 195.529Z" fill="#FFD180"/>
<path opacity="0.1" d="M554.52 235.54C547.666 235.546 540.824 234.964 534.07 233.8C521.084 231.563 508.589 227.072 497.15 220.53L498.06 216.3C509.627 222.565 522.116 226.953 535.06 229.3C553.91 232.53 586.33 231.56 619.28 213.38L621.48 217.38C597.56 230.6 572.38 235.54 554.52 235.54Z" fill="black"/>
<path d="M619.28 212.41C586.28 230.59 553.9 231.56 535.06 228.33C522.116 225.983 509.627 221.595 498.06 215.33L495.64 219.19C507.628 225.778 520.607 230.375 534.07 232.8C540.827 233.968 547.673 234.553 554.53 234.55C572.39 234.55 597.53 229.62 621.53 216.42L619.28 212.41ZM555.37 234.19C555.269 234.19 555.171 234.16 555.087 234.104C555.003 234.048 554.937 233.968 554.899 233.875C554.86 233.782 554.85 233.679 554.87 233.58C554.889 233.482 554.938 233.391 555.009 233.319C555.081 233.248 555.172 233.199 555.271 233.18C555.369 233.16 555.472 233.17 555.565 233.209C555.658 233.247 555.738 233.313 555.794 233.397C555.85 233.48 555.88 233.579 555.88 233.68C555.877 233.813 555.822 233.941 555.727 234.034C555.632 234.128 555.504 234.18 555.37 234.18V234.19Z" fill="#F55F44"/>
<path opacity="0.1" d="M550.3 241.27C550.3 242.612 550.833 243.899 551.782 244.848C552.731 245.797 554.018 246.33 555.36 246.33V246.33C556.702 246.33 557.989 245.797 558.938 244.848C559.887 243.899 560.42 242.612 560.42 241.27V241.27C560.42 239.928 559.887 238.641 558.938 237.692C557.989 236.743 556.702 236.21 555.36 236.21V236.21C554.018 236.21 552.731 236.743 551.782 237.692C550.833 238.641 550.3 239.928 550.3 241.27V241.27ZM555.36 238.74C555.194 238.74 555.031 238.691 554.893 238.598C554.755 238.506 554.648 238.375 554.584 238.221C554.52 238.068 554.504 237.899 554.536 237.736C554.569 237.573 554.649 237.423 554.766 237.306C554.884 237.189 555.033 237.109 555.196 237.076C555.359 237.044 555.528 237.06 555.681 237.124C555.835 237.187 555.966 237.295 556.058 237.433C556.151 237.571 556.2 237.734 556.2 237.9C556.2 238.121 556.113 238.333 555.958 238.49C555.802 238.648 555.591 238.737 555.37 238.74H555.36Z" fill="url(#paint8_linear)"/>
<path d="M550.81 241.27C550.81 242.479 551.29 243.639 552.146 244.494C553.001 245.35 554.161 245.83 555.37 245.83C556.579 245.83 557.739 245.35 558.594 244.494C559.45 243.639 559.93 242.479 559.93 241.27C559.93 240.061 559.45 238.901 558.594 238.046C557.739 237.19 556.579 236.71 555.37 236.71C554.161 236.71 553.001 237.19 552.146 238.046C551.29 238.901 550.81 240.061 550.81 241.27ZM555.37 238.99C555.22 238.99 555.073 238.945 554.948 238.862C554.823 238.778 554.725 238.66 554.668 238.521C554.61 238.382 554.595 238.229 554.625 238.082C554.654 237.934 554.726 237.799 554.833 237.693C554.939 237.586 555.074 237.514 555.222 237.485C555.369 237.455 555.522 237.47 555.661 237.528C555.8 237.585 555.918 237.683 556.002 237.808C556.085 237.933 556.13 238.08 556.13 238.23C556.13 238.432 556.05 238.625 555.907 238.767C555.765 238.91 555.572 238.99 555.37 238.99V238.99Z" fill="#4D8AF0"/>
<path d="M612.57 213.93C542.88 254.93 502.72 216.93 502.72 216.93L612.57 213.93Z" fill="#FFD180"/>
<path d="M803.75 415.36C799.48 403.25 753.75 437.36 753.75 437.36L743.18 436.73L722.84 417.89L737.04 403.69L617.8 301.44C614.617 298.714 610.899 296.683 606.885 295.477C602.87 294.272 598.649 293.918 594.49 294.44L495.36 306.8C494.93 301.12 491.43 294.37 486.48 287.48C476.31 270.8 454.9 251.97 447 245.28L434.88 163.8L445.15 148.39C443.249 147.87 441.379 147.243 439.55 146.51L441.72 143.25L440.92 143.03L441.92 141.85H441.8L467.38 112.25C469.28 110.053 470.254 107.206 470.097 104.306C469.94 101.406 468.665 98.6793 466.54 96.7L409.29 53.2C411.026 49.0567 411.858 44.5906 411.73 40.1C412.18 31.46 408.31 22.69 395.34 16.2C387.315 12.3736 378.908 9.40387 370.26 7.34004C356.009 3.67326 341.036 3.89427 326.9 7.98004C326.67 7.69004 326.42 7.40004 326.16 7.10004C308.54 -13.04 285.43 15.9 284.53 17.1L194.21 117.56C191.754 121.46 190.856 126.141 191.693 130.673C192.531 135.205 195.043 139.255 198.73 142.02L246.54 177.87L246.39 178.18L249.09 180.18C247.09 184.18 244.3 186.88 240.65 187.29L247.97 190.95C246.814 191.759 245.473 192.265 244.07 192.42L277.59 209.18C277.59 226.6 279.39 306.35 307.71 345.5C310.612 350.318 314.065 354.782 318 358.8C318 358.8 320.41 357.49 324.81 355.37L329.87 365.5C335.431 376.622 344.351 385.712 355.365 391.482C366.38 397.252 378.931 399.41 391.24 397.65L548.59 375.17L546.92 380.17L547.82 380.04L496.82 533.04L505.24 535.85L505.08 536.15L506.27 536.66L495.66 556.66L462.27 582.34C462.27 582.34 559.86 631.13 570.13 623.43C580.4 615.73 534.13 582.34 534.13 582.34L531.56 572.07L542.79 548.36L552.2 551.5L627.82 400.26L630.39 395.12L681.57 459.12L696 444.7L697.56 446.28L697.69 446.15L717.69 466.39L732.18 505.94C732.18 505.94 808 427.47 803.75 415.36ZM406.75 121.26L405.75 120.1C399.65 127.73 388.86 136.96 376.83 143.21V134.8L377.4 134.3V130.64C385.004 123.641 390.503 114.657 393.277 104.701C396.05 94.7455 395.989 84.213 393.1 74.29L426.32 99.8L406.75 121.26ZM294 26.43L293.2 25.63L294.01 26.43H294ZM267.45 79.91C267.23 82.5767 267.14 85.26 267.18 87.96C267.121 91.8804 267.339 95.8001 267.83 99.69C269.54 113.28 274.41 124.39 284.44 129.69C293.18 134.29 298.93 134.04 302.59 130.9L302.99 131.26C303.298 136.575 304.679 141.773 307.05 146.54C288.327 142.631 270.446 135.429 254.24 125.27C254.24 125.27 254.3 125.95 254.37 127.17L240.63 113.43L267.45 79.91Z" fill="url(#paint9_linear)"/>
<path d="M518.17 507.27L495.72 549.68L530.64 564.64L553.09 517.25L518.17 507.27Z" fill="#FDA57D"/>
<path d="M530.64 564.64L533.13 574.64C533.13 574.64 578.03 607.07 568.05 614.55C558.07 622.03 463.28 574.64 463.28 574.64L495.71 549.69L530.64 564.64Z" fill="#333333"/>
<path opacity="0.1" d="M550.7 521.65L515.37 509.88L504.86 529.72L539.78 544.69L550.7 521.65Z" fill="black"/>
<path d="M677.69 427.83L711.41 461.97L736.16 433.14L697.68 397.51L677.69 427.83Z" fill="#FDA57D"/>
<path opacity="0.1" d="M699.07 399.17L679.08 429.5L691.86 442.43L717.79 416.5L699.07 399.17Z" fill="black"/>
<path d="M736.16 433.13L746.43 433.74C746.43 433.74 790.83 400.63 794.98 412.39C799.13 424.15 725.49 500.39 725.49 500.39L711.42 461.97L736.16 433.13Z" fill="#333333"/>
<path d="M416.45 177.87L468.27 117.87C470.116 115.735 471.062 112.968 470.909 110.15C470.756 107.331 469.516 104.682 467.45 102.76L354.69 17.3L341 38.66L428.39 105.93L391.29 146.61L416.45 177.87Z" fill="#FDA57D"/>
<path opacity="0.1" d="M410.5 125.62L392.37 145.5L417.56 176.8L443.56 146.74C430.877 142.725 419.475 135.441 410.5 125.62V125.62Z" fill="black"/>
<path d="M266 190.89L207.33 146.89C203.749 144.204 201.31 140.269 200.497 135.867C199.683 131.465 200.556 126.918 202.94 123.13L290.73 25.4399L308.73 43.4399L248 119.09L283.9 154.99L266 190.89Z" fill="#FDA57D"/>
<path opacity="0.1" d="M253.59 182.03L263.19 189.23L281.19 153.33L258.59 130.8C259.07 138.44 260.42 168.13 253.59 182.03Z" fill="black"/>
<path d="M550.69 365.14L496.83 526.71L550.69 544.66L640.44 365.14L568.64 347.19L550.69 365.14Z" fill="#4D8AF0"/>
<path opacity="0.1" d="M548.19 370.13L545.5 378.21L602.05 370.13L624.14 397.75L637.95 370.13L566.14 352.18L548.19 370.13Z" fill="black"/>
<path d="M290.61 25.5501C290.61 25.5501 313.61 -4.1099 331.08 15.8501C348.55 35.8101 303.64 38.3001 303.64 38.3001L290.61 25.5501Z" fill="#FDA57D"/>
<path d="M317.32 329.24L334.67 363.95C340.071 374.753 348.735 383.583 359.433 389.188C370.132 394.793 382.323 396.889 394.28 395.18L604.54 365.18L676.35 454.94L730.2 401.09L614.35 301.79C611.259 299.14 607.648 297.166 603.75 295.993C599.851 294.82 595.75 294.475 591.71 294.98L317.32 329.24Z" fill="#4D8AF0"/>
<path opacity="0.1" d="M264.56 135.59C264.56 135.59 269.29 193.89 251.34 195.89L287.24 213.89C287.24 213.89 285.24 319.6 323.14 357.5C323.14 357.5 392.95 319.6 466.75 321.6C540.55 323.6 448.75 249.79 448.75 249.79L436.63 168.07L446.63 153.07C433.109 149.021 421.006 141.24 411.71 130.62C401.71 143.09 378.85 160 359.02 160H350.44C320.88 160 289.44 154 264.53 138.1L264.56 135.59Z" fill="black"/>
<path d="M261.23 130.6C261.23 130.6 266 188.9 248 190.89L283.9 208.89C283.9 208.89 281.9 314.6 319.8 352.5C319.8 352.5 389.61 314.6 463.41 316.6C537.21 318.6 445.41 244.79 445.41 244.79L433.29 163.07L443.29 148.07C429.77 144.021 417.666 136.24 408.37 125.62C398.37 138.09 375.51 155 355.68 155H347.1C317.54 155 286.1 146.53 261.19 130.6H261.23Z" fill="#292189"/>
<path d="M308.52 114.16V134.16C308.521 144.317 312.557 154.058 319.74 161.24L362.38 203.88L376.57 175.49C379.042 170.547 380.329 165.096 380.33 159.57V114.16H308.52Z" fill="#FDA57D"/>
<path opacity="0.1" d="M309.07 137.25C309.07 137.99 309.07 138.72 309.14 139.46C319.016 148.268 331.789 153.13 345.021 153.119C358.254 153.108 371.019 148.224 380.88 139.4V117.21H309.07V137.25Z" fill="black"/>
<path d="M344.42 150.07C374.161 150.07 398.27 125.961 398.27 96.2201C398.27 66.4796 374.161 42.3701 344.42 42.3701C314.679 42.3701 290.57 66.4796 290.57 96.2201C290.57 125.961 314.679 150.07 344.42 150.07Z" fill="#FDA57D"/>
<path opacity="0.1" d="M308.52 81.03H398.28C398.28 81.03 434.18 45.13 398.28 27.18C390.485 23.4654 382.32 20.5828 373.92 18.58C319.33 4.73998 267.42 49.89 274.44 105.77C276.1 118.97 280.83 129.77 290.57 134.88C328.46 154.8 308.52 81.03 308.52 81.03Z" fill="black"/>
<path d="M308.52 78.54H398.28C398.28 78.54 434.18 42.64 398.28 24.69C390.485 20.9754 382.32 18.0928 373.92 16.09C319.33 2.24999 267.42 47.4 274.44 103.28C276.1 116.48 280.83 127.28 290.57 132.39C328.46 152.34 308.52 78.54 308.52 78.54Z" fill="#333333"/>
<path d="M311.12 105.65C313.876 105.65 316.11 101.741 316.11 96.9199C316.11 92.0985 313.876 88.1899 311.12 88.1899C308.364 88.1899 306.13 92.0985 306.13 96.9199C306.13 101.741 308.364 105.65 311.12 105.65Z" fill="#FDA57D"/>
<path opacity="0.1" d="M283.68 207.93L286.18 200.44L293.66 205.43L283.68 207.93Z" fill="black"/>
<path opacity="0.1" d="M445.55 244.8C445.55 244.8 418.39 257.8 410.9 270.3Z" fill="black"/>
<path opacity="0.1" d="M433.35 163.03L430.86 170.51L425.87 163.03H433.35Z" fill="black"/>
<path d="M308.52 78.54H398.28C398.28 78.54 434.18 42.64 398.28 24.69C390.485 20.9754 382.32 18.0928 373.92 16.09C319.33 2.24999 267.42 47.4 274.44 103.28C276.1 116.48 280.83 127.28 290.57 132.39C328.46 152.34 308.52 78.54 308.52 78.54Z" fill="#333333"/>
<path opacity="0.1" d="M550 280.16C550 280.16 568.21 319.75 544.3 323.16C520.39 326.57 531.3 290 531.3 290C531.3 290 528.91 279.15 523.09 278.54" fill="black"/>
<path opacity="0.1" d="M572 279.2C572 279.2 550.35 317.02 573.86 322.5C597.37 327.98 589.75 290.63 589.75 290.63C589.75 290.63 593.09 280.04 598.95 279.94" fill="black"/>
<path d="M547.89 279.05C547.89 279.05 566.1 318.64 542.19 322.05C518.28 325.46 529.19 288.89 529.19 288.89C529.19 288.89 526.8 278.01 521 277.4" fill="#FFD180"/>
<path d="M573.69 277.53C573.69 277.53 552 315.36 575.55 320.8C599.1 326.24 591.44 288.93 591.44 288.93C591.44 288.93 594.78 278.34 600.64 278.24" fill="#FFD180"/>
<path opacity="0.5" d="M534.93 313.82H534.52V321.55H534.93V313.82Z" fill="#58555D"/>
<path opacity="0.5" d="M541.55 313.82H541.14V321.55H541.55V313.82Z" fill="#58555D"/>
<path opacity="0.5" d="M537.96 311.36H537.55V322.17H537.96V311.36Z" fill="#58555D"/>
<path opacity="0.5" d="M577.93 312.17H577.52V319.9H577.93V312.17Z" fill="#58555D"/>
<path opacity="0.5" d="M584.55 312.17H584.14V319.9H584.55V312.17Z" fill="#58555D"/>
<path opacity="0.5" d="M580.96 309.7H580.55V320.51H580.96V309.7Z" fill="#58555D"/>
<g opacity="0.5">
<path opacity="0.5" d="M564.506 766.124C589.425 757.767 602.851 730.791 594.494 705.872C586.137 680.953 559.161 667.527 534.242 675.884C509.323 684.241 495.896 711.217 504.254 736.136C512.611 761.055 539.587 774.482 564.506 766.124Z" fill="url(#paint10_linear)"/>
</g>
<path d="M563.539 763.242C586.867 755.419 599.435 730.166 591.612 706.839C583.788 683.511 558.536 670.943 535.208 678.766C511.881 686.59 499.312 711.842 507.136 735.17C514.959 758.497 540.212 771.065 563.539 763.242Z" fill="#F55F44"/>
<g opacity="0.5">
<path opacity="0.5" d="M430.81 780.68C424.41 782.83 416.44 781.3 413.47 775.16C411.76 771.61 412.17 767.64 412.57 763.8C413.01 759.59 413.38 755.96 411.01 753.61C409.786 752.568 408.344 751.813 406.79 751.4C404.79 750.73 402.63 750.17 400.57 749.63C396.897 748.786 393.309 747.608 389.85 746.11C383.05 742.92 378.7 737.53 378.22 731.69C377.81 726.69 380.22 722.13 382.52 717.76C384.82 713.39 387.14 709.05 386.04 704.76C384.55 698.97 377.6 696.22 371.48 693.76L370.48 693.38C363 690.38 354.98 684.05 356.98 675.93C357.68 673.1 359.47 670.93 361.2 668.93C362.373 667.629 363.381 666.188 364.2 664.64C366.9 658.95 363.2 652.37 361.55 649.8C360.26 647.8 358.73 645.96 357.25 644.13C354.93 641.442 352.877 638.535 351.12 635.45L350.84 634.93C346.78 627.25 346.7 626.93 347.04 618.56V617.56L350.58 617.7V618.7C350.28 626.29 350.28 626.29 353.97 633.27L354.25 633.79C355.9 636.673 357.826 639.389 360 641.9C361.53 643.79 363.11 645.75 364.5 647.84C368.79 654.33 369.84 661 367.39 666.15C366.433 667.959 365.25 669.639 363.87 671.15C362.33 672.99 360.87 674.73 360.37 676.77C358.81 683.08 366.78 688.1 371.74 690.08L372.69 690.46C379.26 693.06 387.44 696.3 389.38 703.83C390.82 709.42 388.15 714.46 385.56 719.34C383.39 723.44 381.33 727.34 381.66 731.34C382.1 736.71 386.91 740.8 391.26 742.85C394.522 744.256 397.906 745.361 401.37 746.15C403.49 746.7 405.68 747.28 407.82 747.99C409.899 748.561 411.817 749.608 413.42 751.05C416.99 754.59 416.49 759.44 416.01 764.13C415.65 767.63 415.3 770.94 416.58 773.58C418.89 778.36 426.05 779.06 431.03 776.71C435.11 774.79 438.32 771.52 441.72 768.07C442.82 766.95 443.96 765.8 445.12 764.7C451.46 758.7 457.87 756.08 463.67 757.09C465.51 757.473 467.304 758.053 469.02 758.82C470.355 759.407 471.737 759.881 473.15 760.24C476.303 760.802 479.552 760.154 482.248 758.427C484.945 756.699 486.892 754.019 487.7 750.92C487.83 750.33 487.92 749.71 488.02 749.06C488.33 746.98 488.68 744.62 490.34 742.79C492 740.96 494.63 740.29 496.5 739.86L515.8 735.4L516.6 738.85L497.3 743.31C495.47 743.73 493.88 744.17 492.97 745.17C492.06 746.17 491.79 747.84 491.54 749.58C491.44 750.26 491.33 750.97 491.18 751.67C490.165 755.685 487.657 759.161 484.167 761.39C480.678 763.62 476.47 764.435 472.4 763.67C470.795 763.269 469.226 762.734 467.71 762.07C466.224 761.402 464.673 760.892 463.08 760.55C457.2 759.55 451.41 763.62 447.58 767.24C446.47 768.29 445.35 769.43 444.27 770.52C440.8 774.04 437.22 777.69 432.57 779.88C431.999 780.181 431.412 780.448 430.81 780.68V780.68Z" fill="url(#paint11_linear)"/>
</g>
<path d="M431.29 778.92C424.89 781.07 416.92 779.54 413.95 773.4C412.24 769.85 412.65 765.88 413.05 762.04C413.49 757.83 413.86 754.2 411.49 751.85C410.266 750.808 408.824 750.053 407.27 749.64C405.27 748.97 403.11 748.41 401.05 747.87C397.377 747.026 393.789 745.848 390.33 744.35C383.53 741.16 379.18 735.77 378.7 729.93C378.29 724.93 380.7 720.37 383 716C385.3 711.63 387.62 707.29 386.52 703C385.03 697.21 378.08 694.46 371.96 692L370.96 691.62C363.48 688.62 355.46 682.29 357.46 674.17C358.16 671.34 359.95 669.17 361.68 667.17C362.853 665.869 363.861 664.428 364.68 662.88C367.38 657.19 363.68 650.61 362.03 648.04C360.74 646.04 359.21 644.2 357.73 642.37C355.41 639.682 353.357 636.775 351.6 633.69L351.32 633.17C347.26 625.49 347.18 625.17 347.52 616.8V615.8L351.06 615.94V616.94C350.76 624.53 350.76 624.53 354.45 631.51L354.73 632.03C356.38 634.913 358.306 637.629 360.48 640.14C362.01 642.03 363.59 643.99 364.98 646.08C369.27 652.57 370.32 659.24 367.87 664.39C366.913 666.199 365.73 667.879 364.35 669.39C362.81 671.23 361.35 672.97 360.85 675.01C359.29 681.32 367.26 686.34 372.22 688.32L373.17 688.7C379.74 691.3 387.92 694.54 389.86 702.07C391.3 707.66 388.63 712.7 386.04 717.58C383.87 721.68 381.81 725.58 382.14 729.58C382.58 734.95 387.39 739.04 391.74 741.09C395.002 742.496 398.386 743.601 401.85 744.39C403.97 744.94 406.16 745.52 408.3 746.23C410.379 746.801 412.297 747.848 413.9 749.29C417.47 752.83 416.97 757.68 416.49 762.37C416.13 765.87 415.78 769.18 417.06 771.82C419.37 776.6 426.53 777.3 431.51 774.95C435.59 773.03 438.8 769.76 442.2 766.31C443.3 765.19 444.44 764.04 445.6 762.94C451.94 756.94 458.35 754.32 464.15 755.33C465.99 755.713 467.784 756.293 469.5 757.06C470.835 757.647 472.217 758.121 473.63 758.48C476.783 759.042 480.032 758.394 482.728 756.667C485.425 754.939 487.372 752.259 488.18 749.16C488.31 748.57 488.4 747.95 488.5 747.3C488.81 745.22 489.16 742.86 490.82 741.03C492.48 739.2 495.11 738.53 496.98 738.1L516.28 733.64L517.08 737.09L497.78 741.55C495.95 741.97 494.36 742.41 493.45 743.41C492.54 744.41 492.27 746.08 492.02 747.82C491.92 748.5 491.81 749.21 491.66 749.91C490.645 753.925 488.137 757.401 484.647 759.63C481.158 761.86 476.95 762.675 472.88 761.91C471.275 761.509 469.706 760.974 468.19 760.31C466.704 759.642 465.152 759.132 463.56 758.79C457.68 757.79 451.89 761.86 448.06 765.48C446.95 766.53 445.83 767.67 444.75 768.76C441.28 772.28 437.7 775.93 433.05 778.12C432.479 778.421 431.892 778.688 431.29 778.92Z" fill="#F55F44"/>
<path opacity="0.2" d="M546.78 689.27C546.78 689.27 571.43 685.54 583.5 719.94" stroke="black" stroke-miterlimit="10"/>
<path opacity="0.2" d="M519.51 744.07C519.51 744.07 501.21 718.17 533.82 689.61" stroke="black" stroke-miterlimit="10"/>
<path opacity="0.2" d="M527 734.61C527 734.61 518.17 721.02 527.43 708.84" stroke="black" stroke-miterlimit="10"/>
<path opacity="0.2" d="M542.81 703.68C542.81 703.68 554.5 708.3 556.14 729.11" stroke="black" stroke-miterlimit="10"/>
<path opacity="0.2" d="M556.53 679.32C556.53 679.32 574.79 682.81 587.53 707.92" stroke="black" stroke-miterlimit="10"/>
<path opacity="0.2" d="M533 687.21C533 687.21 541.63 681.11 549.64 684.3" stroke="black" stroke-miterlimit="10"/>
<path opacity="0.2" d="M539.52 744.8C539.52 744.8 551.06 752.14 580.8 730.96" stroke="black" stroke-miterlimit="10"/>
<path opacity="0.2" d="M537.47 759.4C537.47 759.4 544.69 766.59 559.72 760.48" stroke="black" stroke-miterlimit="10"/>
<path opacity="0.2" d="M516.06 695.57C512.96 700.169 510.877 705.376 509.949 710.845C509.021 716.313 509.27 721.916 510.68 727.28" stroke="black" stroke-miterlimit="10"/>
<path opacity="0.2" d="M525.75 741.97C525.75 741.97 524.8 748.7 532.33 752.04" stroke="black" stroke-miterlimit="10"/>
<path opacity="0.2" d="M585.61 734.18C585.61 734.18 585.15 747.18 577.95 747.96" stroke="black" stroke-miterlimit="10"/>
<path opacity="0.2" d="M546.1 753.3C550.445 753.88 554.866 753.461 559.025 752.074C563.184 750.688 566.971 748.371 570.1 745.3" stroke="black" stroke-miterlimit="10"/>
<path opacity="0.2" d="M557.22 706.86C557.22 706.86 563.47 711.17 562.85 718.86" stroke="black" stroke-miterlimit="10"/>
<path opacity="0.2" d="M533.38 715.39C533.38 715.39 531.64 724.52 536.13 729.95" stroke="black" stroke-miterlimit="10"/>
<path opacity="0.2" d="M538.66 713.62C538.66 713.62 545.08 721.62 543.33 727.54" stroke="black" stroke-miterlimit="10"/>
</g>
<defs>
<linearGradient id="paint0_linear" x1="485" y1="616.27" x2="485" y2="90.5301" gradientUnits="userSpaceOnUse">
<stop stop-color="#808080" stop-opacity="0.25"/>
<stop offset="0.54" stop-color="#808080" stop-opacity="0.12"/>
<stop offset="1" stop-color="#808080" stop-opacity="0.1"/>
</linearGradient>
<linearGradient id="paint1_linear" x1="76036.5" y1="-444279" x2="51950.8" y2="-478524" gradientUnits="userSpaceOnUse">
<stop stop-color="#808080" stop-opacity="0.25"/>
<stop offset="0.54" stop-color="#808080" stop-opacity="0.12"/>
<stop offset="1" stop-color="#808080" stop-opacity="0.1"/>
</linearGradient>
<linearGradient id="paint2_linear" x1="11128.8" y1="-64468.7" x2="10699" y2="-65079.9" gradientUnits="userSpaceOnUse">
<stop stop-color="#808080" stop-opacity="0.25"/>
<stop offset="0.54" stop-color="#808080" stop-opacity="0.12"/>
<stop offset="1" stop-color="#808080" stop-opacity="0.1"/>
</linearGradient>
<linearGradient id="paint3_linear" x1="12992.4" y1="-63448.9" x2="12562.4" y2="-64060.3" gradientUnits="userSpaceOnUse">
<stop stop-color="#808080" stop-opacity="0.25"/>
<stop offset="0.54" stop-color="#808080" stop-opacity="0.12"/>
<stop offset="1" stop-color="#808080" stop-opacity="0.1"/>
</linearGradient>
<linearGradient id="paint4_linear" x1="10157.8" y1="-62322.7" x2="9727.75" y2="-62934.1" gradientUnits="userSpaceOnUse">
<stop stop-color="#808080" stop-opacity="0.25"/>
<stop offset="0.54" stop-color="#808080" stop-opacity="0.12"/>
<stop offset="1" stop-color="#808080" stop-opacity="0.1"/>
</linearGradient>
<linearGradient id="paint5_linear" x1="11917.4" y1="-61226.9" x2="11487.4" y2="-61838.3" gradientUnits="userSpaceOnUse">
<stop stop-color="#808080" stop-opacity="0.25"/>
<stop offset="0.54" stop-color="#808080" stop-opacity="0.12"/>
<stop offset="1" stop-color="#808080" stop-opacity="0.1"/>
</linearGradient>
<linearGradient id="paint6_linear" x1="55601.9" y1="46716.4" x2="55601.9" y2="27880.5" gradientUnits="userSpaceOnUse">
<stop stop-color="#808080" stop-opacity="0.25"/>
<stop offset="0.54" stop-color="#808080" stop-opacity="0.12"/>
<stop offset="1" stop-color="#808080" stop-opacity="0.1"/>
</linearGradient>
<linearGradient id="paint7_linear" x1="106342" y1="99522.1" x2="106342" y2="44060.5" gradientUnits="userSpaceOnUse">
<stop stop-color="#808080" stop-opacity="0.25"/>
<stop offset="0.54" stop-color="#808080" stop-opacity="0.12"/>
<stop offset="1" stop-color="#808080" stop-opacity="0.1"/>
</linearGradient>
<linearGradient id="paint8_linear" x1="555.37" y1="246.33" x2="555.37" y2="236.21" gradientUnits="userSpaceOnUse">
<stop stop-color="white"/>
<stop offset="1"/>
</linearGradient>
<linearGradient id="paint9_linear" x1="375467" y1="426670" x2="375467" y2="36956.2" gradientUnits="userSpaceOnUse">
<stop stop-color="#808080" stop-opacity="0.25"/>
<stop offset="0.54" stop-color="#808080" stop-opacity="0.12"/>
<stop offset="1" stop-color="#808080" stop-opacity="0.1"/>
</linearGradient>
<linearGradient id="paint10_linear" x1="97416.7" y1="-63708.5" x2="94536.2" y2="-72297.5" gradientUnits="userSpaceOnUse">
<stop stop-color="#808080" stop-opacity="0.25"/>
<stop offset="0.54" stop-color="#808080" stop-opacity="0.12"/>
<stop offset="1" stop-color="#808080" stop-opacity="0.1"/>
</linearGradient>
<linearGradient id="paint11_linear" x1="155741" y1="-112247" x2="146285" y2="-140440" gradientUnits="userSpaceOnUse">
<stop stop-color="#808080" stop-opacity="0.25"/>
<stop offset="0.54" stop-color="#808080" stop-opacity="0.12"/>
<stop offset="1" stop-color="#808080" stop-opacity="0.1"/>
</linearGradient>
<clipPath id="clip0">
<rect width="970" height="781.61" fill="white"/>
</clipPath>
</defs>
</svg>
