<svg width="116" height="116" viewBox="0 0 116 116" fill="none" xmlns="http://www.w3.org/2000/svg">
<path d="M58 116C46.5287 116 35.315 112.598 25.777 106.225C16.2389 99.8521 8.8049 90.7938 4.41502 80.1957C0.0251331 69.5975 -1.12346 57.9357 1.11448 46.6848C3.35242 35.4339 8.87639 25.0993 16.9878 16.9878C25.0993 8.87639 35.4339 3.35242 46.6848 1.11448C57.9357 -1.12346 69.5975 0.0251331 80.1957 4.41502C90.7938 8.8049 99.8521 16.2389 106.225 25.777C112.598 35.315 116 46.5287 116 58C115.983 73.3773 109.866 88.1197 98.993 98.993C88.1197 109.866 73.3773 115.983 58 116ZM58 2.00004C46.9243 2.00004 36.0973 5.28436 26.8881 11.4377C17.6789 17.5911 10.5013 26.3371 6.26279 36.5698C2.02429 46.8024 0.915254 58.0621 3.07603 68.9251C5.2368 79.788 10.5703 89.7663 18.4021 97.598C26.2338 105.43 36.2121 110.763 47.075 112.924C57.9379 115.085 69.1976 113.976 79.4303 109.737C89.6629 105.499 98.409 98.3211 104.562 89.112C110.716 79.9028 114 69.0758 114 58C113.983 43.1531 108.078 28.919 97.5794 18.4206C87.0811 7.92224 72.847 2.01685 58 2.00004Z" fill="#24949A"/>
<path d="M51.5294 83.3419C49.911 83.3449 48.3356 82.8216 47.0407 81.8509L46.9605 81.7906L30.0565 68.8483C29.2736 68.2485 28.6165 67.5003 28.1228 66.6466C27.6291 65.7928 27.3084 64.8502 27.179 63.8725C27.0495 62.8948 27.114 61.9012 27.3685 60.9483C27.6231 59.9955 28.0629 59.1022 28.6627 58.3193C29.2626 57.5365 30.0107 56.8794 30.8644 56.3857C31.7182 55.892 32.6608 55.5713 33.6386 55.4418C34.6163 55.3124 35.6099 55.3768 36.5627 55.6314C37.5155 55.886 38.4089 56.3258 39.1917 56.9256L50.1408 65.3212L76.0153 31.5771C76.6154 30.7944 77.3638 30.1376 78.2177 29.6442C79.0716 29.1508 80.0144 28.8304 80.9922 28.7013C81.9699 28.5722 82.9635 28.637 83.9163 28.892C84.869 29.1469 85.7621 29.587 86.5447 30.1871L86.3839 30.4056L86.5489 30.1903C88.1276 31.4036 89.1606 33.1937 89.4211 35.1676C89.6817 37.1416 89.1486 39.1384 87.9388 40.7198L57.5042 80.411C56.8003 81.3256 55.8952 82.0658 54.859 82.5741C53.8228 83.0824 52.6835 83.3451 51.5294 83.3419Z" fill="#24949A"/>
</svg>
